<svg width="30" height="30" viewBox="0 0 30 30" fill="none" xmlns="http://www.w3.org/2000/svg">
<g clip-path="url(#clip0_339_478)">
<path d="M29.5 15.0001C29.5 23.0083 23.0081 29.5001 15 29.5001C6.99187 29.5001 0.5 23.0083 0.5 15.0001C0.5 6.99199 6.99187 0.500122 15 0.500122C23.0081 0.500122 29.5 6.99199 29.5 15.0001Z" stroke="white"/>
<path d="M19.8767 4.60461H16.5539C14.582 4.60461 12.3886 5.43397 12.3886 8.29232C12.3983 9.28828 12.3886 10.2421 12.3886 11.3156H10.1074V14.9457H12.4592V25.3961H16.7808V14.8767H19.6332L19.8913 11.3054H16.7064C16.7064 11.3054 16.7135 9.71674 16.7064 9.25538C16.7064 8.12582 17.8817 8.19051 17.9524 8.19051C18.5117 8.19051 19.5992 8.19214 19.8784 8.19051V4.60461H19.8767Z" fill="white"/>
</g>
<defs>
<clipPath id="clip0_339_478">
<rect width="30" height="30" fill="white"/>
</clipPath>
</defs>
</svg>
