<svg width="40" height="40" viewBox="0 0 40 40" fill="none" xmlns="http://www.w3.org/2000/svg">
<path d="M19.9998 17.7555C22.9208 17.7555 25.2887 15.4174 25.2887 12.5333C25.2887 9.6491 22.9208 7.31104 19.9998 7.31104C17.0789 7.31104 14.7109 9.6491 14.7109 12.5333C14.7109 15.4174 17.0789 17.7555 19.9998 17.7555Z" fill="#3D0072"/>
<path d="M11.9782 13.0555H12.5116V12.5777C12.5148 11.1884 12.9068 9.82769 13.6431 8.64953C14.3795 7.47137 15.4308 6.52278 16.6782 5.91106C16.3089 5.06058 15.7162 4.32599 14.9629 3.78533C14.2097 3.24466 13.3241 2.91811 12.4001 2.84035C11.4762 2.76259 10.5484 2.93653 9.71542 3.3437C8.8824 3.75086 8.17521 4.37605 7.66897 5.15285C7.16272 5.92965 6.87632 6.82907 6.84019 7.75556C6.80406 8.68206 7.01954 9.60105 7.46376 10.4149C7.90797 11.2288 8.56432 11.9071 9.3631 12.3779C10.1619 12.8487 11.0733 13.0944 12.0005 13.0888L11.9782 13.0555ZM27.5116 12.5333V13.0111H28.0449C28.9597 13.0019 29.8552 12.7462 30.637 12.2711C31.4188 11.7959 32.058 11.1187 32.4874 10.3108C32.9168 9.50299 33.1205 8.59431 33.077 7.68046C33.0335 6.76661 32.7444 5.88139 32.2402 5.11797C31.736 4.35455 31.0354 3.74117 30.212 3.34239C29.3885 2.94362 28.4729 2.7742 27.5613 2.85196C26.6497 2.92972 25.776 3.25179 25.032 3.78427C24.288 4.31675 23.7014 5.03994 23.3338 5.87773C24.5816 6.48706 25.6341 7.43325 26.3724 8.60937C27.1106 9.78549 27.5052 11.1447 27.5116 12.5333ZM24.7671 18.2777C26.9763 18.715 29.1124 19.4632 31.1116 20.5C31.3932 20.6547 31.6483 20.8535 31.8671 21.0888H37.7782V17.2888C37.7793 17.1431 37.7406 16.9998 37.6661 16.8745C37.5917 16.7492 37.4845 16.6466 37.356 16.5777C34.4762 15.0714 31.2726 14.2896 28.0227 14.3H27.2893C26.9043 15.8652 26.0187 17.2619 24.7671 18.2777ZM7.25601 23.2444C7.25398 22.6848 7.40511 22.1353 7.69301 21.6555C7.98092 21.1756 8.39464 20.7837 8.88935 20.5222C10.8885 19.4854 13.0246 18.7372 15.2338 18.3C13.9883 17.2928 13.1033 15.9086 12.7116 14.3555H11.9782C8.72826 14.3452 5.52473 15.127 2.6449 16.6333C2.51642 16.7021 2.40918 16.8047 2.33477 16.9301C2.26036 17.0554 2.2216 17.1986 2.22268 17.3444V24.4444H7.25601V23.2444ZM23.8449 29.6555H30.4671V31.2111H23.8449V29.6555Z" fill="#3D0072"/>
<path d="M36.4563 23.6222H28.823V22.5111C28.823 22.2164 28.7059 21.9338 28.4975 21.7254C28.2892 21.517 28.0066 21.3999 27.7119 21.3999C27.4172 21.3999 27.1346 21.517 26.9262 21.7254C26.7178 21.9338 26.6008 22.2164 26.6008 22.5111V23.6222H24.4452V20.4777C22.9833 20.1707 21.4945 20.0107 20.0008 19.9999C16.4938 19.9853 13.037 20.8324 9.93409 22.4666C9.79588 22.5383 9.68019 22.6468 9.5998 22.7802C9.5194 22.9135 9.47743 23.0665 9.47854 23.2222V29.4555H17.3785V36.2222C17.3785 36.5168 17.4956 36.7995 17.704 37.0078C17.9123 37.2162 18.195 37.3333 18.4896 37.3333H36.4563C36.751 37.3333 37.0336 37.2162 37.242 37.0078C37.4504 36.7995 37.5674 36.5168 37.5674 36.2222V24.7333C37.5674 24.4386 37.4504 24.156 37.242 23.9476C37.0336 23.7392 36.751 23.6222 36.4563 23.6222ZM35.3452 35.1333H19.6008V25.8444H26.6008V26.8555C26.6008 27.1502 26.7178 27.4328 26.9262 27.6412C27.1346 27.8495 27.4172 27.9666 27.7119 27.9666C28.0066 27.9666 28.2892 27.8495 28.4975 27.6412C28.7059 27.4328 28.823 27.1502 28.823 26.8555V25.8444H35.3452V35.1333Z" fill="#3D0072"/>
</svg>
