<svg width="30" height="30" viewBox="0 0 30 30" fill="none" xmlns="http://www.w3.org/2000/svg">
<g clip-path="url(#clip0_339_473)">
<path d="M29.5 15.0001C29.5 23.0083 23.0081 29.5001 15 29.5001C6.99187 29.5001 0.5 23.0083 0.5 15.0001C0.5 6.99199 6.99187 0.500122 15 0.500122C23.0081 0.500122 29.5 6.99199 29.5 15.0001Z" stroke="white"/>
<path d="M23.9629 16.207V22.3912H20.3775V16.6214C20.3775 15.1727 19.8599 14.1834 18.5617 14.1834C17.571 14.1834 16.9825 14.8494 16.7226 15.4944C16.6282 15.7249 16.6039 16.0449 16.6039 16.3682V22.3909H13.0182C13.0182 22.3909 13.0663 12.6189 13.0182 11.6073H16.6041V13.1355C16.5969 13.1475 16.5867 13.1593 16.5803 13.1708H16.6041V13.1355C17.0806 12.4023 17.9304 11.3541 19.8355 11.3541C22.1944 11.3541 23.9629 12.8954 23.9629 16.207ZM9.26723 6.4093C8.04072 6.4093 7.23828 7.21441 7.23828 8.2722C7.23828 9.30753 8.01745 10.1359 9.22017 10.1359H9.24343C10.494 10.1359 11.2716 9.30753 11.2716 8.2722C11.2478 7.21441 10.494 6.4093 9.26723 6.4093ZM7.45139 22.3912H11.0357V11.6073H7.45139V22.3912Z" fill="#F1F2F2"/>
</g>
<defs>
<clipPath id="clip0_339_473">
<rect width="30" height="30" fill="white"/>
</clipPath>
</defs>
</svg>
