<svg width="33" height="32" viewBox="0 0 33 32" fill="none" xmlns="http://www.w3.org/2000/svg">
<path d="M29.5781 7.99317C29.5781 7.25984 28.9835 6.6665 28.2515 6.6665H17.5715C17.2196 6.6665 16.8822 6.80628 16.6334 7.05508C16.3846 7.30387 16.2448 7.64132 16.2448 7.99317C16.2448 8.34502 16.3846 8.68247 16.6334 8.93127C16.8822 9.18006 17.2196 9.31984 17.5715 9.31984H28.2515C28.6033 9.31984 28.9408 9.18006 29.1896 8.93127C29.4384 8.68247 29.5781 8.34502 29.5781 7.99317ZM29.5781 15.9998C29.5781 15.2665 28.9835 14.6732 28.2515 14.6732H4.23813C3.88627 14.6732 3.54883 14.8129 3.30003 15.0617C3.05124 15.3105 2.91146 15.648 2.91146 15.9998C2.91146 16.3517 3.05124 16.6891 3.30003 16.9379C3.54883 17.1867 3.88627 17.3265 4.23813 17.3265H28.2515C28.6033 17.3265 28.9408 17.1867 29.1896 16.9379C29.4384 16.6891 29.5781 16.3517 29.5781 15.9998ZM28.2515 22.6798C28.6033 22.6798 28.9408 22.8196 29.1896 23.0684C29.4384 23.3172 29.5781 23.6546 29.5781 24.0065C29.5781 24.3584 29.4384 24.6958 29.1896 24.9446C28.9408 25.1934 28.6033 25.3332 28.2515 25.3332H12.2381C11.8863 25.3332 11.5488 25.1934 11.3 24.9446C11.0512 24.6958 10.9115 24.3584 10.9115 24.0065C10.9115 23.6546 11.0512 23.3172 11.3 23.0684C11.5488 22.8196 11.8863 22.6798 12.2381 22.6798H28.2515Z" fill="white"/>
</svg>
