<svg width="27" height="27" viewBox="0 0 27 27" fill="none" xmlns="http://www.w3.org/2000/svg">
<path d="M20.813 10.6921L14.0787 7.31653C9.5444 5.05497 7.69149 6.90788 9.95865 11.4366L10.9607 13.4351L9.95865 15.4335C7.69149 19.9623 9.55 21.8208 14.0787 19.5536L20.813 16.1892C23.8303 14.6722 23.8359 12.2035 20.813 10.6921ZM17.9805 13.8829L13.7149 13.8941C13.5469 13.8941 13.4014 13.8269 13.295 13.7206C13.1887 13.6142 13.1215 13.4687 13.1215 13.3007C13.1215 12.976 13.3902 12.7073 13.7149 12.7073L17.9805 12.6961C18.3052 12.6961 18.5739 12.9648 18.5739 13.2895C18.5739 13.6142 18.3052 13.8829 17.9805 13.8829Z" fill="white"/>
</svg>
