<svg width="30" height="30" viewBox="0 0 30 30" fill="none" xmlns="http://www.w3.org/2000/svg">
<g clip-path="url(#clip0_339_468)">
<path d="M29.5 15.0001C29.5 23.0083 23.0081 29.5001 15 29.5001C6.99187 29.5001 0.5 23.0083 0.5 15.0001C0.5 6.99199 6.99187 0.500122 15 0.500122C23.0081 0.500122 29.5 6.99199 29.5 15.0001Z" stroke="white"/>
<path d="M24.187 10.7801C23.5442 11.0651 22.8527 11.2579 22.1275 11.344C22.8679 10.9004 23.4361 10.1985 23.7043 9.3608C23.0115 9.77177 22.2438 10.0699 21.4275 10.2306C20.7735 9.53407 19.8416 9.09875 18.8098 9.09875C16.83 9.09875 15.2243 10.7044 15.2243 12.6842C15.2243 12.9652 15.2562 13.2387 15.3177 13.5013C12.3379 13.3518 9.6958 11.9245 7.92729 9.75466C7.61872 10.2841 7.44171 10.9004 7.44171 11.5574C7.44171 12.801 8.07516 13.8989 9.03669 14.5417C8.44923 14.5233 7.89601 14.362 7.41283 14.0928C7.41257 14.108 7.41257 14.1233 7.41257 14.1382C7.41257 15.8755 8.64897 17.3245 10.2889 17.6536C9.98833 17.736 9.67094 17.7795 9.34445 17.7795C9.11289 17.7795 8.88856 17.7574 8.66983 17.7156C9.126 19.1398 10.4498 20.1764 12.0191 20.2056C10.7918 21.1674 9.24605 21.7404 7.56578 21.7404C7.277 21.7404 6.99089 21.7235 6.71094 21.6901C8.29682 22.7078 10.1819 23.3011 12.2066 23.3011C18.8015 23.3011 22.408 17.8378 22.408 13.0994C22.408 12.9441 22.4045 12.7893 22.3976 12.6358C23.0987 12.1304 23.7065 11.4991 24.187 10.7801Z" fill="#F1F2F2"/>
</g>
<defs>
<clipPath id="clip0_339_468">
<rect width="30" height="30" fill="white"/>
</clipPath>
</defs>
</svg>
